<?xml version="1.0" standalone="no"?><!-- Generator: Gravit.io --><svg xmlns="http://www.w3.org/2000/svg" xmlns:xlink="http://www.w3.org/1999/xlink" style="isolation:isolate" viewBox="0 0 324 360" width="324" height="360"><defs><clipPath id="_clipPath_04r74uZ7gbyQlH1nXWfAmDvVrjKWtRO3"><rect width="324" height="360"/></clipPath></defs><g clip-path="url(#_clipPath_04r74uZ7gbyQlH1nXWfAmDvVrjKWtRO3)"><g id="Group"><g id="Group"><linearGradient id="_lgradient_0" x1="2.6590653573926994%" y1="41.36992559056416%" x2="104.74812486146494%" y2="66.9623645006689%"><stop offset="0.8695652173913043%" stop-opacity="1" style="stop-color:rgb(132,171,217)"/><stop offset="83.04347826086956%" stop-opacity="1" style="stop-color:rgb(249,253,236)"/></linearGradient><path d=" M 11.573 269.506 L 159.656 201.793 L 312.532 269.506 L 159.656 352.553 L 11.573 269.506 Z " fill="url(#_lgradient_0)" vector-effect="non-scaling-stroke" stroke-width="0.5" stroke="rgb(53,52,52)" stroke-linejoin="miter" stroke-linecap="square" stroke-miterlimit="3"/><linearGradient id="_lgradient_1" x1="22.627288223559827%" y1="10.422519949446635%" x2="76.7185673834087%" y2="100.7069733101706%"><stop offset="0.8695652173912993%" stop-opacity="1" style="stop-color:rgb(132,171,217)"/><stop offset="83.04347826086956%" stop-opacity="1" style="stop-color:rgb(249,253,236)"/></linearGradient><path d=" M 159.656 7.974 L 159.656 201.793 L 312.532 269.506 L 311.938 91.815 L 159.656 7.974 Z " fill="url(#_lgradient_1)" vector-effect="non-scaling-stroke" stroke-width="0.5" stroke="rgb(255,254,254)" stroke-linejoin="miter" stroke-linecap="square" stroke-miterlimit="3"/><linearGradient id="_lgradient_2" x1="2.6590653573926994%" y1="41.36992559056416%" x2="104.74812486146494%" y2="66.9623645006689%"><stop offset="0.8695652173913043%" stop-opacity="1" style="stop-color:rgb(132,171,217)"/><stop offset="83.04347826086956%" stop-opacity="1" style="stop-color:rgb(249,253,236)"/></linearGradient><path d=" M 159.656 7.974 L 159.656 201.793 L 11.573 269.506 L 14.059 90.33 L 159.656 7.974 Z " fill="url(#_lgradient_2)" vector-effect="non-scaling-stroke" stroke-width="0.5" stroke="rgb(255,255,255)" stroke-linejoin="miter" stroke-linecap="square" stroke-miterlimit="3"/><path d=" M 159.468 5.5 L 11.468 90.5 L 11.468 269.5 L 159.468 354.5 L 312.468 269.5 L 312.468 90.5 L 159.468 5.5 Z " fill="none" vector-effect="non-scaling-stroke" stroke-width="10" stroke="rgb(0,0,0)" stroke-linejoin="miter" stroke-linecap="square" stroke-miterlimit="3"/><path d=" M 254.007 276.2 C 232.405 276.336 89.934 276.336 73.103 276.2 C 38.91 266.831 38.91 208.446 86.952 207.088 C 64.091 182.648 80.513 135.425 120.151 148.839 C 120.483 113.536 124.757 84.14 145.962 67.236 Q 163.885 52.947 191.869 54.22 Q 167.167 86.754 177.769 100.332 C 208.549 101.52 220.477 119.511 217.561 144.766 C 243.67 144.63 264.212 166.354 243.372 201.793 C 265.538 198.942 296.02 247.143 254.007 276.2 Z " fill="none" vector-effect="non-scaling-stroke" stroke-width="12" stroke="rgb(0,0,0)" stroke-linejoin="round" stroke-linecap="round" stroke-miterlimit="3"/></g><defs><filter id="PW0CHBF21bLYXfskCfluMeImnTLMPLWQ" x="-200%" y="-200%" width="400%" height="400%"><feOffset xmlns="http://www.w3.org/2000/svg" in="SourceAlpha" result="offOut" dx="0" dy="0"/><feGaussianBlur xmlns="http://www.w3.org/2000/svg" in="offOut" result="blurOut" stdDeviation="10"/><feComponentTransfer xmlns="http://www.w3.org/2000/svg" in="blurOut" result="opacOut"><feFuncA xmlns="http://www.w3.org/2000/svg" type="table" tableValues="0 0.5"/></feComponentTransfer><feBlend xmlns="http://www.w3.org/2000/svg" in="SourceGraphic" in2="opacOut" mode="normal"/></filter></defs><g filter="url(#PW0CHBF21bLYXfskCfluMeImnTLMPLWQ)"><g transform="matrix(1,0,0,1,95,151.076)"><text transform="matrix(1,0,0,1,20.952,43.512)" style="font-family:&quot;Alfa Slab One&quot;;font-weight:400;font-size:42px;font-style:normal;fill:#000000;stroke:none;">KLR</text><text transform="matrix(1,0,0,1,0.12,101.01)" style="font-family:&quot;Alfa Slab One&quot;;font-weight:400;font-size:42px;font-style:normal;fill:#000000;stroke:none;">FOME</text></g></g></g></g></svg>